<?xml version="1.0" encoding="UTF-8" standalone="no"?>
<!-- Created with Inkscape (http://www.inkscape.org/) -->

<svg
  width="253.73955mm"
  height="85.545685mm"
  viewBox="0 0 253.73955 85.545685"
  version="1.1"
  id="svg5"
  xmlns="http://www.w3.org/2000/svg"
  xmlns:svg="http://www.w3.org/2000/svg">
  <defs
    id="defs2" />
  <g
    id="layer1"
    transform="translate(-4.2999958,-74.033205)">
    <path
      id="rect111"
      style="display:inline;fill:#ffffff;stroke-width:0.264583"
      d="m 72.199727,74.033207 a 1.0583333,1.0583333 0 0 0 -1.058333,1.058334 v 8.350394 H 34.045467 c -1.043899,-3.004072 -3.910381,-5.178495 -7.256405,-5.178495 -4.219921,0 -7.679634,3.458162 -7.679634,7.678084 0,4.219923 3.459713,7.679635 7.679634,7.679635 3.345853,0 6.212374,-2.175185 7.256405,-5.179529 h 19.863904 v 5.068941 a 6.4354539,6.4354539 0 0 0 -4.435388,6.113839 6.4354539,6.4354539 0 0 0 6.435266,6.43527 6.4354539,6.4354539 0 0 0 6.435783,-6.43527 6.4354539,6.4354539 0 0 0 -4.435388,-6.116423 V 88.44163 h 13.23175 v 27.37249 H 40.670903 v -6.36344 c 2.633207,-0.8515 4.553723,-3.33437 4.553727,-6.23993 2e-6,-3.601845 -2.950725,-6.554634 -6.552572,-6.554634 -3.601846,0 -6.55464,2.952789 -6.554639,6.554634 5e-6,2.90499 1.920828,5.38744 4.553728,6.23942 v 6.36395 h -18.09812 a 7.3556566,7.3556566 0 0 0 -6.916891,-4.85552 7.3556566,7.3556566 0 0 0 -7.3561401,7.35563 7.3556566,7.3556566 0 0 0 7.3561401,7.35562 7.3556566,7.3556566 0 0 0 6.912756,-4.85604 h 52.572502 v 23.39651 H 60.995243 v -5.26945 c 3.117822,-0.87963 5.422923,-3.76025 5.422925,-7.14788 -2e-6,-4.07945 -3.342837,-7.42177 -7.422286,-7.42177 -4.079449,0 -7.423835,3.34232 -7.423836,7.42177 10e-7,3.38691 2.305651,6.26707 5.422925,7.14737 v 5.26996 H 44.589526 a 7.3556566,7.3556566 0 0 0 -6.912239,-4.85552 7.3556566,7.3556566 0 0 0 -7.355624,7.35562 7.3556566,7.3556566 0 0 0 7.355624,7.35563 7.3556566,7.3556566 0 0 0 6.91689,-4.85552 h 26.547217 v 9.31003 a 1.0583333,1.0583333 0 0 0 1.058333,1.05833 h 5.402255 a 1.0583333,1.0583333 0 0 0 1.058333,-1.05833 V 75.091541 a 1.0583333,1.0583333 0 0 0 -1.058333,-1.058334 z m -45.410665,7.771619 c 2.30611,10e-7 4.136699,1.83059 4.136699,4.136698 0,2.306109 -1.830589,4.138766 -4.136699,4.138766 -2.306108,0 -4.138765,-1.832657 -4.138765,-4.138766 0,-2.306108 1.832657,-4.136697 4.138765,-4.136698 z m 11.882996,17.874878 c 1.968342,10e-7 3.531052,1.562706 3.531051,3.531046 -3e-6,1.96834 -1.562712,3.53157 -3.531051,3.53157 -1.968339,0 -3.533631,-1.56323 -3.533634,-3.53157 -10e-7,-1.96834 1.565292,-3.531045 3.533634,-3.531046 z m 20.323824,28.113016 c 2.229343,0 3.998205,1.77092 3.998206,4.00027 -10e-7,2.22934 -1.768863,3.99975 -3.998206,3.99975 -2.229343,0 -3.999755,-1.77041 -3.999756,-3.99975 1e-6,-2.22935 1.770413,-4.00027 3.999756,-4.00027 z" />
    <g
      id="g861"
      transform="matrix(0.91396008,0,0,0.91396008,72.490317,8.9768818)">
      <path
        id="rect401-7-5"
        style="display:inline;fill:#ffffff;stroke-width:6.97038"
        d="m 137.1615,88.282676 v 4.941822 20.348052 a 0.52916667,0.52916667 45 0 0 0.52917,0.52917 l 4.94182,0 a 0.52916667,0.52916667 135 0 0 0.52917,-0.52917 V 94.282832 a 0.52916667,0.52916667 135 0 1 0.52917,-0.529167 h 3.95913 a 0.52916667,0.52916667 45 0 1 0.52917,0.529167 v 19.289718 a 0.52916667,0.52916667 45 0 0 0.52917,0.52917 h 4.94181 a 0.52916667,0.52916667 135 0 0 0.52917,-0.52917 V 94.282832 a 0.52916667,0.52916667 135 0 1 0.52917,-0.529167 l 6.34291,0 a 0.52916667,0.52916667 45 0 1 0.52917,0.529167 v 47.434258 a 0.52916667,0.52916667 135 0 1 -0.52917,0.52917 h -12.6416 a 0.52916667,0.52916667 135 0 0 -0.52917,0.52917 v 4.94181 a 0.52916667,0.52916667 45 0 0 0.52917,0.52917 h 43.35876 a 0.52916667,0.52916667 135 0 0 0.52917,-0.52917 v -4.94181 a 0.52916667,0.52916667 45 0 0 -0.52917,-0.52917 h -12.64104 a 0.52916667,0.52916667 45 0 1 -0.52917,-0.52917 V 94.282832 a 0.52916667,0.52916667 135 0 1 0.52917,-0.529167 h 6.34234 a 0.52916667,0.52916667 45 0 1 0.52917,0.529167 v 19.289718 a 0.52916667,0.52916667 45 0 0 0.52917,0.52917 l 4.94182,0 a 0.52916667,0.52916667 135 0 0 0.52917,-0.52917 V 94.282832 a 0.52916667,0.52916667 135 0 1 0.52917,-0.529167 h 3.95913 a 0.52916667,0.52916667 45 0 1 0.52917,0.529167 l 0,19.289718 a 0.52916667,0.52916667 45 0 0 0.52917,0.52917 h 4.94181 a 0.52916667,0.52916667 135 0 0 0.52917,-0.52917 V 94.282832 88.282676 a 0.52916667,0.52916667 45 0 0 -0.52917,-0.529167 h -64.79693 a 0.52916667,0.52916667 135 0 0 -0.52917,0.529167 z m 30.94779,5.470989 h 3.9597 a 0.52916667,0.52916667 45 0 1 0.52917,0.529167 v 47.434258 a 0.52916667,0.52916667 135 0 1 -0.52917,0.52917 h -3.9597 a 0.52916667,0.52916667 45 0 1 -0.52917,-0.52917 V 94.282832 a 0.52916667,0.52916667 135 0 1 0.52917,-0.529167 z" />
      <path
        id="rect401-8"
        style="display:inline;fill:#ffffff;stroke-width:7.25875"
        d="m 87.2486,87.989227 v 4.941822 a 0.52916667,0.52916667 45 0 0 0.529167,0.529167 h 12.880203 a 0.52916667,0.52916667 45 0 1 0.52917,0.529167 v 47.941427 a 0.52916667,0.52916667 135 0 1 -0.52917,0.52917 H 87.777767 a 0.52916667,0.52916667 135 0 0 -0.529167,0.52917 v 4.94182 a 0.52916667,0.52916667 45 0 0 0.529167,0.52917 H 131.6143 a 0.52916667,0.52916667 135 0 0 0.52917,-0.52917 v -4.94182 a 0.52916667,0.52916667 45 0 0 -0.52917,-0.52917 h -12.88021 a 0.52916667,0.52916667 45 0 1 -0.52917,-0.52917 V 93.989383 a 0.52916667,0.52916667 135 0 1 0.52917,-0.529167 h 12.88021 a 0.52916667,0.52916667 135 0 0 0.52917,-0.529167 V 87.989227 A 0.52916667,0.52916667 45 0 0 131.6143,87.46006 l -43.836533,0 A 0.52916667,0.52916667 135 0 0 87.2486,87.989227 Z m 20.46787,5.470989 h 3.95913 a 0.52916667,0.52916667 45 0 1 0.52917,0.529167 v 47.941427 a 0.52916667,0.52916667 135 0 1 -0.52917,0.52917 h -3.95913 a 0.52916667,0.52916667 45 0 1 -0.52917,-0.52917 V 93.989383 a 0.52916667,0.52916667 135 0 1 0.52917,-0.529167 z" />
      <path
        id="rect401"
        style="display:inline;fill:#ffffff;stroke-width:6.65506"
        d="m 94.678897,88.868834 v 4.941256 a 0.52916667,0.52916667 45 0 0 0.529167,0.529167 h 7.796586 a 0.52916667,0.52916667 45 0 1 0.52917,0.529167 v 47.941996 a 0.52916667,0.52916667 135 0 1 -0.52917,0.52917 h -7.796586 a 0.52916667,0.52916667 135 0 0 -0.529167,0.52917 v 4.94181 a 0.52916667,0.52916667 45 0 0 0.529167,0.52917 l 64.796936,0 a 0.52916667,0.52916667 135 0 0 0.52917,-0.52917 v -4.94181 -20.34806 a 0.52916667,0.52916667 45 0 0 -0.52917,-0.52917 h -4.94182 a 0.52916667,0.52916667 135 0 0 -0.52917,0.52917 v 19.28972 a 0.52916667,0.52916667 135 0 1 -0.52917,0.52917 h -3.95912 a 0.52916667,0.52916667 45 0 1 -0.52917,-0.52917 V 123.5207 a 0.52916667,0.52916667 45 0 0 -0.52917,-0.52917 h -4.94182 a 0.52916667,0.52916667 135 0 0 -0.52917,0.52917 v 19.28972 a 0.52916667,0.52916667 135 0 1 -0.52917,0.52917 h -21.90645 a 0.52916667,0.52916667 45 0 1 -0.52917,-0.52917 V 94.868424 a 0.52916667,0.52916667 135 0 1 0.52917,-0.529167 h 10.80684 a 0.52916667,0.52916667 135 0 0 0.52917,-0.529167 v -4.941256 a 0.52916667,0.52916667 45 0 0 -0.52917,-0.529167 H 95.208064 a 0.52916667,0.52916667 135 0 0 -0.529167,0.529167 z m 15.383683,5.470423 h 3.95969 a 0.52916667,0.52916667 45 0 1 0.52917,0.529167 l 0,47.941996 a 0.52916667,0.52916667 135 0 1 -0.52917,0.52917 h -3.95969 a 0.52916667,0.52916667 45 0 1 -0.52917,-0.52917 V 94.868424 a 0.52916667,0.52916667 135 0 1 0.52917,-0.529167 z"
        transform="translate(-78.303608,-0.83946236)" />
    </g>
  </g>
</svg>